{"asset":{"version":"2.0","generator":"THREE.GLTFExporter"},"scenes":[{"name":"AuxScene","nodes":[0]}],"scene":0,"nodes":[{"mesh":0}],"bufferViews":[{"buffer":0,"byteOffset":0,"byteLength":57096,"target":34962,"byteStride":12},{"buffer":0,"byteOffset":57096,"byteLength":57096,"target":34962,"byteStride":12},{"buffer":0,"byteOffset":114192,"byteLength":38064,"target":34962,"byteStride":8},{"buffer":0,"byteOffset":152256,"byteLength":57096,"target":34962,"byteStride":12},{"buffer":0,"byteOffset":209352,"byteLength":38064,"target":34962,"byteStride":8},{"buffer":0,"byteOffset":247416,"byteLength":8184,"target":34963},{"buffer":0,"byteOffset":255600,"byteLength":444,"target":34963},{"buffer":0,"byteOffset":256044,"byteLength":696,"target":34963},{"buffer":0,"byteOffset":256740,"byteLength":192,"target":34963}],"buffers":[{"byteLength":256932,"uri":"data:application/octet-stream;base64,"}],"accessors":[{"bufferView":0,"componentType":5126,"count":4758,"max":[7.001922607421875,6,5.099999904632568],"min":[-7,-0.0005099750705994666,-10.001923561096191],"type":"VEC3"},{"bufferView":1,"componentType":5126,"count":4758,"max":[1,1,1],"min":[-1,-1,-1],"type":"VEC3"},{"bufferView":2,"componentType":5126,"count":4758,"max":[1,1],"min":[-4.6566129424663316e-11,0],"type":"VEC2"},{"bufferView":3,"componentType":5126,"count":4758,"max":[1,1,1],"min":[0.17144110798835754,0.14126329123973846,0.11953843384981155],"type":"VEC3"},{"bufferView":4,"componentType":5126,"count":4758,"max":[-1,0],"min":[-1,0],"type":"VEC2"},{"bufferView":5,"componentType":5123,"count":4092,"max":[4091],"min":[0],"type":"SCALAR"},{"bufferView":6,"componentType":5123,"count":222,"max":[4313],"min":[4092],"type":"SCALAR"},{"bufferView":7,"componentType":5123,"count":348,"max":[4661],"min":[4314],"type":"SCALAR"},{"bufferView":8,"componentType":5123,"count":96,"max":[4757],"min":[4662],"type":"SCALAR"}],"materials":[{"pbrMetallicRoughness":{"metallicFactor":0.5,"roughnessFactor":0.5,"baseColorTexture":{"index":0}},"alphaMode":"MASK","alphaCutoff":0.01},{"pbrMetallicRoughness":{"metallicFactor":0.5,"roughnessFactor":0.5,"baseColorTexture":{"index":1}},"alphaMode":"MASK","alphaCutoff":0.01},{"pbrMetallicRoughness":{"metallicFactor":0.5,"roughnessFactor":0.5,"baseColorTexture":{"index":2}},"alphaMode":"MASK","alphaCutoff":0.01},{"pbrMetallicRoughness":{"metallicFactor":0.5,"roughnessFactor":0.5,"baseColorTexture":{"index":3}},"alphaMode":"MASK","alphaCutoff":0.01}],"textures":[{"sampler":0,"source":0},{"sampler":1,"source":1},{"sampler":2,"source":2},{"sampler":3,"source":3}],"samplers":[{"magFilter":9728,"minFilter":9728,"wrapS":33071,"wrapT":33071},{"magFilter":9728,"minFilter":9728,"wrapS":33071,"wrapT":33071},{"magFilter":9728,"minFilter":9728,"wrapS":33071,"wrapT":33071},{"magFilter":9728,"minFilter":9728,"wrapS":33071,"wrapT":33071}],"images":[{"mimeType":"image/png","uri":"data:image/png;base64,"},{"mimeType":"image/png","uri":"data:image/png;base64,"},{"mimeType":"image/png","uri":"data:image/png;base64,"},{"mimeType":"image/png","uri":"data:image/png;base64,"}],"meshes":[{"primitives":[{"mode":4,"attributes":{"POSITION":0,"NORMAL":1,"TEXCOORD_0":2,"COLOR_0":3,"_UVANIMATION":4},"indices":5,"material":0},{"mode":4,"attributes":{"POSITION":0,"NORMAL":1,"TEXCOORD_0":2,"COLOR_0":3,"_UVANIMATION":4},"indices":6,"material":1},{"mode":4,"attributes":{"POSITION":0,"NORMAL":1,"TEXCOORD_0":2,"COLOR_0":3,"_UVANIMATION":4},"indices":7,"material":2},{"mode":4,"attributes":{"POSITION":0,"NORMAL":1,"TEXCOORD_0":2,"COLOR_0":3,"_UVANIMATION":4},"indices":8,"material":3}]}]}